# xmcd
#
# Track frame offsets:
#	150
#	10970
#	21178
#	30937
#	41783
#	61277
#	68673
#	80231
#	94451
#	105409
#	119480
#	131826
#	145221
#	155467
#
# Disc length: 2174 seconds
#
# Revision: 1
# Processed by: cddbd v1.5.2PL0 Copyright (c) Steve Scherf et al.
# Submitted via: audiograbber 1.83.01
#
DISCID=bf087c0e
DTITLE=Devils and Soehne - Hillibilly Heroes
DYEAR=2009
DGENRE=Hillibilly
TTITLE0=Take Me Back To tulsa
TTITLE1=Blue Moon Of Kentacky
TTITLE2=Why Don't You Love Me
TTITLE3=Shotgun Boogie
TTITLE4=Walk Softly
TTITLE5=Lonesome Road Blues
TTITLE6=Move It On Over
TTITLE7=So Long
TTITLE8=Jambalaya
TTITLE9=Tennessee Waltz
TTITLE10=Roll In My Sweet Baby's Arms
TTITLE11=Sommertime Is Passed And Gone
TTITLE12=Hey Good Lookin'
TTITLE13=Oh Susanna
EXTD=
EXTT0=
EXTT1=
EXTT2=
EXTT3=
EXTT4=
EXTT5=
EXTT6=
EXTT7=
EXTT8=
EXTT9=
EXTT10=
EXTT11=
EXTT12=
EXTT13=
PLAYORDER=
